# xmcd
#
# Track frame offsets:
#  150
#  16377
#  30563
#  46318
#
# Disc length: 814 seconds
#
# Revision: 0
# Processed by: cddbd v1.5.1PL2 Copyright (c) Steve Scherf et al.
# Submitted via: Collectorz.com Music Collector 6.9
#
DISCID=26032c04
DTITLE=Magnificent Seven - Cool 2 Be A Cowboy
DYEAR=1900
DGENRE=
TTITLE0=Cool 2 Be A Cowboy
TTITLE1=My Old Friend Misery
TTITLE2=Buckle Hits The Floor
TTITLE3=Shannon Lee
EXTD=
EXTT0=
EXTT1=
EXTT2=
EXTT3=
PLAYORDER=
